Adsworth-72PTG1XT0.ufo
<glyph name="B" format="2">
  <advance width="781.0"/>
  <outline>
    <contour>
      <point x="66.0" y="0.0" type="line"/>
      <point x="66.0" y="1500.0" type="line"/>
      <point x="458.0" y="1500.0" type="line"/>
      <point x="458.0" y="0.0" type="line"/>
    </contour>
    <contour>
      <point x="501.0" y="781.0" type="line"/>
      <point x="604.0" y="781.0"/>
      <point x="776.0" y="648.0"/>
      <point x="776.0" y="494.0" type="qcurve" smooth="yes"/>
      <point x="776.0" y="326.0" type="line" smooth="yes"/>
      <point x="776.0" y="166.0"/>
      <point x="610.0" y="0.0"/>
      <point x="456.0" y="0.0" type="qcurve" smooth="yes"/>
      <point x="275.0" y="0.0" type="line"/>
      <point x="275.0" y="219.0" type="line"/>
      <point x="263.0" y="219.0" type="line" smooth="yes"/>
      <point x="338.0" y="219.0"/>
      <point x="387.0" y="310.0"/>
      <point x="387.0" y="377.0" type="qcurve" smooth="yes"/>
      <point x="387.0" y="498.0" type="line" smooth="yes"/>
      <point x="387.0" y="582.0"/>
      <point x="333.0" y="673.0"/>
      <point x="257.0" y="673.0" type="qcurve" smooth="yes"/>
      <point x="275.0" y="673.0" type="line"/>
      <point x="275.0" y="853.0" type="line"/>
      <point x="330.0" y="853.0" type="line" smooth="yes"/>
      <point x="371.0" y="853.0"/>
      <point x="391.0" y="918.0"/>
      <point x="391.0" y="973.0" type="qcurve" smooth="yes"/>
      <point x="391.0" y="1180.0" type="line" smooth="yes"/>
      <point x="391.0" y="1239.0"/>
      <point x="357.0" y="1270.0"/>
      <point x="344.0" y="1270.0" type="qcurve" smooth="yes"/>
      <point x="275.0" y="1270.0" type="line"/>
      <point x="275.0" y="1500.0" type="line"/>
      <point x="455.0" y="1500.0" type="line" smooth="yes"/>
      <point x="616.0" y="1500.0"/>
      <point x="773.0" y="1354.0"/>
      <point x="773.0" y="1226.0" type="qcurve" smooth="yes"/>
      <point x="773.0" y="1038.0" type="line" smooth="yes"/>
      <point x="773.0" y="895.0"/>
      <point x="626.0" y="794.0"/>
      <point x="454.0" y="794.0" type="qcurve"/>
    </contour>
  </outline>
</glyph>
<glyph name="E" format="2">
  <advance width="660.0"/>
  <outline>
    <contour>
      <point x="24.0" y="0.0" type="line"/>
      <point x="24.0" y="1500.0" type="line"/>
      <point x="434.0" y="1500.0" type="line"/>
      <point x="434.0" y="0.0" type="line"/>
    </contour>
    <contour>
      <point x="560.0" y="652.0" type="line"/>
      <point x="225.0" y="652.0" type="line"/>
      <point x="225.0" y="936.0" type="line"/>
      <point x="560.0" y="936.0" type="line"/>
    </contour>
    <contour>
      <point x="620.0" y="1216.0" type="line"/>
      <point x="225.0" y="1216.0" type="line"/>
      <point x="225.0" y="1500.0" type="line"/>
      <point x="620.0" y="1500.0" type="line"/>
    </contour>
    <contour>
      <point x="620.0" y="0.0" type="line"/>
      <point x="225.0" y="0.0" type="line"/>
      <point x="225.0" y="284.0" type="line"/>
      <point x="620.0" y="284.0" type="line"/>
    </contour>
  </outline>
</glyph>
<glyph name="J" format="2">
  <advance width="584.0"/>
  <outline>
    <contour>
      <point x="566.0" y="284.0" type="line" smooth="yes"/>
      <point x="566.0" y="96.0"/>
      <point x="391.0" y="-7.0"/>
      <point x="261.0" y="-7.0" type="qcurve" smooth="yes"/>
      <point x="266.0" y="-7.0" type="line" smooth="yes"/>
      <point x="118.0" y="-7.0"/>
      <point x="-20.0" y="146.0"/>
      <point x="-25.0" y="300.0" type="qcurve" smooth="yes"/>
      <point x="-24.0" y="462.0" type="line"/>
      <point x="288.0" y="450.0" type="line"/>
      <point x="288.0" y="299.0" type="line" smooth="yes"/>
      <point x="288.0" y="283.0"/>
      <point x="256.0" y="266.0"/>
      <point x="229.0" y="266.0" type="qcurve" smooth="yes"/>
      <point x="227.0" y="266.0" type="line" smooth="yes"/>
      <point x="198.0" y="266.0"/>
      <point x="175.0" y="198.0"/>
      <point x="175.0" y="218.0" type="qcurve" smooth="yes"/>
      <point x="175.0" y="1510.0" type="line"/>
      <point x="566.0" y="1500.0" type="line"/>
    </contour>
  </outline>
</glyph>
<glyph name="K" format="2">
  <advance width="603.0"/>
  <outline>
    <contour>
      <point x="24.0" y="0.0" type="line"/>
      <point x="24.0" y="1500.0" type="line"/>
      <point x="434.0" y="1500.0" type="line"/>
      <point x="427.0" y="1120.0" type="line"/>
      <point x="490.0" y="1356.0" type="line"/>
      <point x="302.0" y="1500.0" type="line"/>
      <point x="692.0" y="1500.0" type="line"/>
      <point x="556.0" y="801.0" type="line"/>
      <point x="484.0" y="827.0" type="line"/>
      <point x="427.0" y="611.0" type="line"/>
      <point x="434.0" y="0.0" type="line"/>
    </contour>
    <contour>
      <point x="114.0" y="656.0" type="line"/>
      <point x="356.0" y="1029.0" type="line"/>
      <point x="715.0" y="0.0" type="line"/>
      <point x="253.0" y="0.0" type="line"/>
    </contour>
  </outline>
</glyph>
<glyph name="M" format="2">
  <advance width="978.0"/>
  <outline>
    <contour>
      <point x="24.0" y="0.0" type="line"/>
      <point x="24.0" y="1500.0" type="line"/>
      <point x="513.0" y="1500.0" type="line"/>
      <point x="527.0" y="616.0" type="line"/>
      <point x="520.0" y="616.0" type="line"/>
      <point x="505.0" y="1500.0" type="line"/>
      <point x="964.0" y="1500.0" type="line"/>
      <point x="964.0" y="0.0" type="line"/>
      <point x="624.0" y="0.0" type="line"/>
      <point x="624.0" y="725.0" type="line"/>
      <point x="657.0" y="0.0" type="line"/>
      <point x="349.0" y="0.0" type="line"/>
      <point x="378.0" y="725.0" type="line"/>
      <point x="378.0" y="0.0" type="line"/>
    </contour>
  </outline>
</glyph>
<glyph name="O" format="2">
  <advance width="763.0"/>
  <outline>
    <contour>
      <point x="381.0" y="-8.0" type="line" smooth="yes"/>
      <point x="247.0" y="-8.0"/>
      <point x="74.0" y="210.0"/>
      <point x="74.0" y="386.0" type="qcurve" smooth="yes"/>
      <point x="74.0" y="1101.0" type="line" smooth="yes"/>
      <point x="74.0" y="1285.0"/>
      <point x="251.0" y="1503.0"/>
      <point x="379.0" y="1503.0" type="qcurve" smooth="yes"/>
      <point x="381.0" y="1503.0" type="line" smooth="yes"/>
      <point x="523.0" y="1503.0"/>
      <point x="689.0" y="1285.0"/>
      <point x="689.0" y="1120.0" type="qcurve" smooth="yes"/>
      <point x="689.0" y="374.0" type="line" smooth="yes"/>
      <point x="689.0" y="210.0"/>
      <point x="524.0" y="-8.0"/>
      <point x="383.0" y="-8.0" type="qcurve" smooth="yes"/>
    </contour>
    <contour>
      <point x="382.0" y="242.0" type="line" smooth="yes"/>
      <point x="314.0" y="242.0"/>
      <point x="242.0" y="195.0"/>
      <point x="242.0" y="253.0" type="qcurve" smooth="yes"/>
      <point x="242.0" y="1231.0" type="line" smooth="yes"/>
      <point x="242.0" y="1293.0"/>
      <point x="314.0" y="1248.0"/>
      <point x="382.0" y="1248.0" type="qcurve" smooth="yes"/>
      <point x="384.0" y="1248.0" type="line" smooth="yes"/>
      <point x="447.0" y="1248.0"/>
      <point x="521.0" y="1313.0"/>
      <point x="521.0" y="1244.0" type="qcurve" smooth="yes"/>
      <point x="521.0" y="245.0" type="line" smooth="yes"/>
      <point x="521.0" y="195.0"/>
      <point x="438.0" y="242.0"/>
      <point x="384.0" y="242.0" type="qcurve" smooth="yes"/>
    </contour>
  </outline>
</glyph>
<glyph name="P" format="2">
  <advance width="730.0"/>
  <outline>
    <contour>
      <point x="23.0" y="0.0" type="line"/>
      <point x="23.0" y="1500.0" type="line"/>
      <point x="433.0" y="1500.0" type="line"/>
      <point x="433.0" y="0.0" type="line"/>
    </contour>
    <contour>
      <point x="406.0" y="505.0" type="qcurve" smooth="yes"/>
      <point x="386.0" y="505.0" type="line"/>
      <point x="386.0" y="755.0" type="line"/>
      <point x="344.0" y="755.0" type="line" smooth="yes"/>
      <point x="318.0" y="755.0"/>
      <point x="317.0" y="750.0"/>
      <point x="317.0" y="814.0" type="qcurve" smooth="yes"/>
      <point x="317.0" y="1154.0" type="line" smooth="yes"/>
      <point x="317.0" y="1198.0"/>
      <point x="347.0" y="1242.0"/>
      <point x="341.0" y="1242.0" type="qcurve" smooth="yes"/>
      <point x="386.0" y="1242.0" type="line"/>
      <point x="386.0" y="1500.0" type="line"/>
      <point x="455.0" y="1500.0" type="line" smooth="yes"/>
      <point x="607.0" y="1500.0"/>
      <point x="734.0" y="1343.0"/>
      <point x="734.0" y="1219.0" type="qcurve" smooth="yes"/>
      <point x="734.0" y="796.0" type="line" smooth="yes"/>
      <point x="734.0" y="647.0"/>
      <point x="582.0" y="505.0"/>
    </contour>
  </outline>
</glyph>
<glyph name="Q" format="2">
  <advance width="763.0"/>
  <outline>
    <contour>
      <point x="381.0" y="12.0" type="line" smooth="yes"/>
      <point x="247.0" y="12.0"/>
      <point x="74.0" y="200.0"/>
      <point x="74.0" y="396.0" type="qcurve" smooth="yes"/>
      <point x="74.0" y="1101.0" type="line" smooth="yes"/>
      <point x="74.0" y="1285.0"/>
      <point x="251.0" y="1503.0"/>
      <point x="379.0" y="1503.0" type="qcurve" smooth="yes"/>
      <point x="381.0" y="1503.0" type="line" smooth="yes"/>
      <point x="523.0" y="1503.0"/>
      <point x="689.0" y="1285.0"/>
      <point x="689.0" y="1120.0" type="qcurve" smooth="yes"/>
      <point x="689.0" y="384.0" type="line" smooth="yes"/>
      <point x="689.0" y="200.0"/>
      <point x="514.0" y="12.0"/>
      <point x="383.0" y="12.0" type="qcurve" smooth="yes"/>
    </contour>
    <contour>
      <point x="387.0" y="242.0" type="line" smooth="yes"/>
      <point x="319.0" y="242.0"/>
      <point x="247.0" y="185.0"/>
      <point x="247.0" y="243.0" type="qcurve" smooth="yes"/>
      <point x="247.0" y="1231.0" type="line" smooth="yes"/>
      <point x="247.0" y="1293.0"/>
      <point x="319.0" y="1248.0"/>
      <point x="387.0" y="1248.0" type="qcurve" smooth="yes"/>
      <point x="389.0" y="1248.0" type="line" smooth="yes"/>
      <point x="452.0" y="1248.0"/>
      <point x="526.0" y="1313.0"/>
      <point x="526.0" y="1244.0" type="qcurve" smooth="yes"/>
      <point x="526.0" y="235.0" type="line" smooth="yes"/>
      <point x="526.0" y="185.0"/>
      <point x="443.0" y="242.0"/>
      <point x="389.0" y="242.0" type="qcurve" smooth="yes"/>
    </contour>
    <contour>
      <point x="303.0" y="238.0" type="line"/>
      <point x="766.0" y="143.0" type="line"/>
      <point x="766.0" y="-122.0" type="line"/>
      <point x="304.0" y="8.0" type="line"/>
    </contour>
  </outline>
</glyph>
<glyph name="R" format="2">
  <advance width="639.0"/>
  <outline>
    <contour>
      <point x="24.0" y="0.0" type="line"/>
      <point x="24.0" y="1500.0" type="line"/>
      <point x="420.0" y="1500.0" type="line"/>
      <point x="420.0" y="0.0" type="line"/>
    </contour>
    <contour>
      <point x="480.0" y="633.0" type="qcurve" smooth="yes"/>
      <point x="240.0" y="633.0" type="line"/>
      <point x="240.0" y="858.0" type="line"/>
      <point x="320.0" y="858.0" type="line" smooth="yes"/>
      <point x="312.0" y="858.0"/>
      <point x="313.0" y="866.0"/>
      <point x="313.0" y="868.0" type="qcurve" smooth="yes"/>
      <point x="313.0" y="1214.0" type="line" smooth="yes"/>
      <point x="313.0" y="1227.0"/>
      <point x="313.0" y="1258.0"/>
      <point x="310.0" y="1258.0" type="qcurve" smooth="yes"/>
      <point x="240.0" y="1258.0" type="line"/>
      <point x="240.0" y="1500.0" type="line"/>
      <point x="507.0" y="1500.0" type="line" smooth="yes"/>
      <point x="601.0" y="1500.0"/>
      <point x="736.0" y="1390.0"/>
      <point x="736.0" y="1272.0" type="qcurve" smooth="yes"/>
      <point x="736.0" y="838.0" type="line" smooth="yes"/>
      <point x="736.0" y="733.0"/>
      <point x="628.0" y="633.0"/>
    </contour>
    <contour>
      <point x="547.0" y="813.0" type="line"/>
      <point x="723.0" y="0.0" type="line"/>
      <point x="325.0" y="0.0" type="line"/>
      <point x="224.0" y="674.0" type="line"/>
    </contour>
  </outline>
</glyph>
<glyph name="U" format="2">
  <advance width="774.0"/>
  <outline>
    <contour>
      <point x="35.0" y="1500.0" type="line"/>
      <point x="428.0" y="1500.0" type="line"/>
      <point x="428.0" y="209.0" type="line" smooth="yes"/>
      <point x="428.0" y="281.0"/>
      <point x="418.0" y="309.0"/>
      <point x="393.0" y="309.0" type="qcurve" smooth="yes"/>
      <point x="402.0" y="309.0" type="line" smooth="yes"/>
      <point x="377.0" y="309.0"/>
      <point x="367.0" y="303.0"/>
      <point x="367.0" y="218.0" type="qcurve" smooth="yes"/>
      <point x="366.0" y="1500.0" type="line"/>
      <point x="746.0" y="1500.0" type="line"/>
      <point x="738.0" y="295.0" type="line" smooth="yes"/>
      <point x="736.0" y="144.0"/>
      <point x="565.0" y="-9.0"/>
      <point x="403.0" y="-9.0" type="qcurve" smooth="yes"/>
      <point x="368.0" y="-9.0" type="line" smooth="yes"/>
      <point x="246.0" y="-9.0"/>
      <point x="35.0" y="133.0"/>
      <point x="35.0" y="300.0" type="qcurve" smooth="yes"/>
    </contour>
  </outline>
</glyph>
<glyph name="Z" format="2">
  <advance width="538.0"/>
  <outline>
    <contour>
      <point x="500.0" y="0.0" type="line"/>
      <point x="14.0" y="0.0" type="line"/>
      <point x="9.0" y="279.0" type="line"/>
      <point x="108.0" y="1216.0" type="line"/>
      <point x="4.0" y="1216.0" type="line"/>
      <point x="4.0" y="1500.0" type="line"/>
      <point x="500.0" y="1500.0" type="line"/>
      <point x="500.0" y="1226.0" type="line"/>
      <point x="403.0" y="284.0" type="line"/>
      <point x="500.0" y="284.0" type="line"/>
    </contour>
  </outline>
</glyph>
<glyph name="a" format="2">
  <advance width="587.0"/>
  <outline>
    <contour>
      <point x="24.0" y="798.0" type="line"/>
      <point x="6.0" y="846.0"/>
      <point x="130.0" y="994.0"/>
      <point x="276.0" y="994.0" type="qcurve" smooth="yes"/>
      <point x="430.0" y="994.0"/>
      <point x="566.0" y="840.0"/>
      <point x="570.0" y="733.0" type="qcurve" smooth="yes"/>
      <point x="570.0" y="0.0" type="line"/>
      <point x="238.0" y="0.0" type="line"/>
      <point x="238.0" y="689.0" type="line" smooth="yes"/>
      <point x="238.0" y="731.0"/>
      <point x="172.0" y="792.0"/>
      <point x="125.0" y="792.0" type="qcurve" smooth="yes"/>
      <point x="139.0" y="792.0"/>
      <point x="124.0" y="753.0"/>
      <point x="162.0" y="748.0" type="qcurve"/>
    </contour>
    <contour>
      <point x="221.0" y="97.0" type="line"/>
      <point x="237.0" y="65.0"/>
      <point x="174.0" y="-13.0"/>
      <point x="140.0" y="-13.0" type="qcurve" smooth="yes"/>
      <point x="67.0" y="-13.0"/>
      <point x="-43.0" y="128.0"/>
      <point x="-43.0" y="311.0" type="qcurve" smooth="yes"/>
      <point x="-43.0" y="498.0"/>
      <point x="59.0" y="649.0"/>
      <point x="159.0" y="649.0" type="qcurve" smooth="yes"/>
      <point x="183.0" y="649.0"/>
      <point x="236.0" y="630.0"/>
      <point x="221.0" y="620.0" type="qcurve"/>
      <point x="220.0" y="513.0" type="line"/>
      <point x="332.0" y="492.0"/>
      <point x="295.0" y="529.0"/>
      <point x="305.0" y="529.0" type="qcurve" smooth="yes"/>
      <point x="288.0" y="529.0"/>
      <point x="252.0" y="435.0"/>
      <point x="252.0" y="326.0" type="qcurve" smooth="yes"/>
      <point x="252.0" y="211.0"/>
      <point x="302.0" y="154.0"/>
      <point x="321.0" y="154.0" type="qcurve" smooth="yes"/>
      <point x="263.0" y="154.0"/>
      <point x="283.0" y="198.0"/>
      <point x="220.0" y="198.0" type="qcurve"/>
    </contour>
  </outline>
</glyph>
<glyph name="ampersand" format="2">
  <advance width="840.0"/>
  <outline>
    <contour>
      <point x="298.0" y="526.0" type="line"/>
      <point x="924.0" y="729.0" type="line"/>
      <point x="987.0" y="581.0" type="line"/>
      <point x="361.0" y="378.0" type="line"/>
    </contour>
    <contour>
      <point x="553.0" y="708.0" type="line"/>
      <point x="455.0" y="708.0" type="line" smooth="yes"/>
      <point x="404.0" y="708.0"/>
      <point x="343.0" y="629.0"/>
      <point x="343.0" y="514.0" type="qcurve" smooth="yes"/>
      <point x="343.0" y="446.0" type="line" smooth="yes"/>
      <point x="343.0" y="296.0"/>
      <point x="393.0" y="220.0"/>
      <point x="413.0" y="220.0" type="qcurve" smooth="yes"/>
      <point x="454.0" y="220.0" type="line" smooth="yes"/>
      <point x="509.0" y="220.0"/>
      <point x="543.0" y="342.0"/>
      <point x="543.0" y="404.0" type="qcurve" smooth="yes"/>
      <point x="543.0" y="427.0" type="line" smooth="yes"/>
      <point x="543.0" y="449.0"/>
      <point x="541.0" y="491.0"/>
      <point x="540.0" y="511.0" type="qcurve"/>
      <point x="827.0" y="581.0" type="line"/>
      <point x="836.0" y="554.0"/>
      <point x="854.0" y="461.0"/>
      <point x="854.0" y="431.0" type="qcurve" smooth="yes"/>
      <point x="854.0" y="401.0" type="line" smooth="yes"/>
      <point x="854.0" y="212.0"/>
      <point x="631.0" y="-21.0"/>
      <point x="497.0" y="-23.0" type="qcurve" smooth="yes"/>
      <point x="467.0" y="-23.0" type="line" smooth="yes"/>
      <point x="238.0" y="-21.0"/>
      <point x="-6.0" y="194.0"/>
      <point x="-6.0" y="403.0" type="qcurve" smooth="yes"/>
      <point x="-6.0" y="472.0" type="line" smooth="yes"/>
      <point x="-6.0" y="620.0"/>
      <point x="126.0" y="779.0"/>
      <point x="256.0" y="805.0" type="qcurve"/>
      <point x="149.0" y="837.0"/>
      <point x="60.0" y="968.0"/>
      <point x="60.0" y="1049.0" type="qcurve" smooth="yes"/>
      <point x="60.0" y="1207.0" type="line" smooth="yes"/>
      <point x="60.0" y="1339.0"/>
      <point x="234.0" y="1512.0"/>
      <point x="356.0" y="1512.0" type="qcurve" smooth="yes"/>
      <point x="402.0" y="1512.0" type="line" smooth="yes"/>
      <point x="518.0" y="1512.0"/>
      <point x="666.0" y="1379.0"/>
      <point x="674.0" y="1260.0" type="qcurve" smooth="yes"/>
      <point x="674.0" y="1070.0" type="line"/>
      <point x="434.0" y="1065.0" type="line"/>
      <point x="434.0" y="1193.0" type="line" smooth="yes"/>
      <point x="434.0" y="1220.0"/>
      <point x="423.0" y="1254.0"/>
      <point x="416.0" y="1254.0" type="qcurve" smooth="yes"/>
      <point x="394.0" y="1254.0" type="line" smooth="yes"/>
      <point x="382.0" y="1254.0"/>
      <point x="372.0" y="1216.0"/>
      <point x="372.0" y="1161.0" type="qcurve" smooth="yes"/>
      <point x="372.0" y="1040.0" type="line" smooth="yes"/>
      <point x="372.0" y="963.0"/>
      <point x="446.0" y="934.0"/>
      <point x="490.0" y="930.0" type="qcurve" smooth="yes"/>
      <point x="546.0" y="929.0" type="line"/>
    </contour>
  </outline>
</glyph>
<glyph name="asciicircum" format="2">
  <advance width="572.0"/>
  <outline>
    <contour>
      <point x="478.0" y="1513.0" type="line"/>
      <point x="774.0" y="833.0" type="line"/>
      <point x="424.0" y="833.0" type="line"/>
      <point x="276.0" y="1210.0" type="line"/>
      <point x="149.0" y="833.0" type="line"/>
      <point x="-202.0" y="833.0" type="line"/>
      <point x="88.0" y="1513.0" type="line"/>
    </contour>
  </outline>
</glyph>
<glyph name="asciitilde" format="2">
  <advance width="754.0"/>
  <outline>
    <contour>
      <point x="410.0" y="907.0" type="qcurve" smooth="yes"/>
      <point x="371.0" y="952.0"/>
      <point x="295.0" y="1002.0"/>
      <point x="227.0" y="1002.0" type="qcurve" smooth="yes"/>
      <point x="154.0" y="1002.0"/>
      <point x="2.0" y="811.0"/>
      <point x="-23.0" y="656.0" type="qcurve"/>
      <point x="82.0" y="557.0" type="line"/>
      <point x="100.0" y="631.0"/>
      <point x="170.0" y="705.0"/>
      <point x="224.0" y="705.0" type="qcurve"/>
      <point x="279.0" y="705.0"/>
      <point x="340.0" y="665.0"/>
      <point x="376.0" y="632.0" type="qcurve" smooth="yes"/>
      <point x="428.0" y="583.0"/>
      <point x="535.0" y="486.0"/>
      <point x="598.0" y="486.0" type="qcurve" smooth="yes"/>
      <point x="648.0" y="486.0"/>
      <point x="785.0" y="644.0"/>
      <point x="812.0" y="784.0" type="qcurve"/>
      <point x="711.0" y="908.0" type="line"/>
      <point x="687.0" y="844.0"/>
      <point x="613.0" y="789.0"/>
      <point x="575.0" y="789.0" type="qcurve" smooth="yes"/>
      <point x="538.0" y="789.0"/>
      <point x="441.0" y="872.0"/>
    </contour>
  </outline>
</glyph>
<glyph name="backslash" format="2">
  <advance width="356.0"/>
  <outline>
    <contour>
      <point x="424.0" y="0.0" type="line"/>
      <point x="72.0" y="0.0" type="line"/>
      <point x="-68.0" y="1500.0" type="line"/>
      <point x="284.0" y="1500.0" type="line"/>
    </contour>
  </outline>
</glyph>
<glyph name="bar" format="2">
  <advance width="384.0"/>
  <outline>
    <contour>
      <point x="37.0" y="-500.0" type="line"/>
      <point x="37.0" y="1500.0" type="line"/>
      <point x="347.0" y="1500.0" type="line"/>
      <point x="347.0" y="-500.0" type="line"/>
    </contour>
  </outline>
</glyph>
<glyph name="braceleft" format="2">
  <advance width="324.0"/>
  <outline>
    <contour>
      <point x="-72.0" y="482.0" type="line"/>
      <point x="18.0" y="481.0"/>
      <point x="36.0" y="413.0"/>
      <point x="36.0" y="368.0" type="qcurve" smooth="yes"/>
      <point x="36.0" y="334.0"/>
      <point x="2.0" y="275.0"/>
      <point x="-21.0" y="239.0" type="qcurve" smooth="yes"/>
      <point x="-45.0" y="203.0"/>
      <point x="-84.0" y="116.0"/>
      <point x="-84.0" y="-2.0" type="qcurve" smooth="yes"/>
      <point x="-84.0" y="-98.0"/>
      <point x="71.0" y="-295.0"/>
      <point x="219.0" y="-400.0" type="qcurve"/>
      <point x="375.0" y="-189.0" type="line"/>
      <point x="297.0" y="-108.0"/>
      <point x="205.0" y="-6.0"/>
      <point x="205.0" y="45.0" type="qcurve" smooth="yes"/>
      <point x="205.0" y="109.0"/>
      <point x="226.0" y="186.0"/>
      <point x="256.0" y="235.0" type="qcurve" smooth="yes"/>
      <point x="290.0" y="289.0"/>
      <point x="347.0" y="376.0"/>
      <point x="347.0" y="443.0" type="qcurve" smooth="yes"/>
      <point x="347.0" y="498.0"/>
      <point x="191.0" y="599.0"/>
      <point x="77.0" y="613.0" type="qcurve"/>
      <point x="205.0" y="634.0"/>
      <point x="352.0" y="736.0"/>
      <point x="352.0" y="778.0" type="qcurve" smooth="yes"/>
      <point x="352.0" y="830.0"/>
      <point x="299.0" y="910.0"/>
      <point x="261.0" y="950.0" type="qcurve" smooth="yes"/>
      <point x="224.0" y="990.0"/>
      <point x="190.0" y="1067.0"/>
      <point x="190.0" y="1123.0" type="qcurve" smooth="yes"/>
      <point x="190.0" y="1180.0"/>
      <point x="302.0" y="1321.0"/>
      <point x="388.0" y="1355.0" type="qcurve"/>
      <point x="247.0" y="1526.0" type="line"/>
      <point x="150.0" y="1501.0"/>
      <point x="-82.0" y="1332.0"/>
      <point x="-82.0" y="1252.0" type="qcurve" smooth="yes"/>
      <point x="-82.0" y="1149.0"/>
      <point x="-44.0" y="1047.0"/>
      <point x="-19.0" y="1005.0" type="qcurve" smooth="yes"/>
      <point x="6.0" y="963.0"/>
      <point x="40.0" y="894.0"/>
      <point x="40.0" y="857.0" type="qcurve" smooth="yes"/>
      <point x="40.0" y="809.0"/>
      <point x="20.0" y="737.0"/>
      <point x="-75.0" y="720.0" type="qcurve"/>
    </contour>
  </outline>
</glyph>
<glyph name="braceright" format="2">
  <advance width="324.0"/>
  <outline>
    <contour>
      <point x="395.0" y="482.0" type="qcurve"/>
      <point x="398.0" y="720.0" type="line"/>
      <point x="303.0" y="737.0"/>
      <point x="283.0" y="809.0"/>
      <point x="283.0" y="857.0" type="qcurve" smooth="yes"/>
      <point x="283.0" y="894.0"/>
      <point x="317.0" y="963.0"/>
      <point x="342.0" y="1005.0" type="qcurve" smooth="yes"/>
      <point x="367.0" y="1047.0"/>
      <point x="405.0" y="1149.0"/>
      <point x="405.0" y="1252.0" type="qcurve" smooth="yes"/>
      <point x="405.0" y="1332.0"/>
      <point x="173.0" y="1501.0"/>
      <point x="76.0" y="1526.0" type="qcurve"/>
      <point x="-65.0" y="1345.0" type="line"/>
      <point x="21.0" y="1311.0"/>
      <point x="133.0" y="1170.0"/>
      <point x="133.0" y="1113.0" type="qcurve" smooth="yes"/>
      <point x="133.0" y="1057.0"/>
      <point x="99.0" y="980.0"/>
      <point x="62.0" y="940.0" type="qcurve" smooth="yes"/>
      <point x="24.0" y="900.0"/>
      <point x="-29.0" y="820.0"/>
      <point x="-29.0" y="768.0" type="qcurve" smooth="yes"/>
      <point x="-29.0" y="726.0"/>
      <point x="118.0" y="624.0"/>
      <point x="246.0" y="603.0" type="qcurve"/>
      <point x="132.0" y="589.0"/>
      <point x="-24.0" y="488.0"/>
      <point x="-24.0" y="433.0" type="qcurve" smooth="yes"/>
      <point x="-24.0" y="366.0"/>
      <point x="33.0" y="279.0"/>
      <point x="67.0" y="225.0" type="qcurve" smooth="yes"/>
      <point x="97.0" y="176.0"/>
      <point x="118.0" y="99.0"/>
      <point x="118.0" y="35.0" type="qcurve" smooth="yes"/>
      <point x="118.0" y="-16.0"/>
      <point x="26.0" y="-118.0"/>
      <point x="-52.0" y="-199.0" type="qcurve"/>
      <point x="104.0" y="-400.0" type="line"/>
      <point x="252.0" y="-295.0"/>
      <point x="407.0" y="-98.0"/>
      <point x="407.0" y="-2.0" type="qcurve" smooth="yes"/>
      <point x="407.0" y="116.0"/>
      <point x="368.0" y="203.0"/>
      <point x="344.0" y="239.0" type="qcurve" smooth="yes"/>
      <point x="321.0" y="275.0"/>
      <point x="287.0" y="334.0"/>
      <point x="287.0" y="368.0" type="qcurve" smooth="yes"/>
      <point x="287.0" y="413.0"/>
      <point x="305.0" y="481.0"/>
    </contour>
  </outline>
</glyph>
<glyph name="bracketleft" format="2">
  <advance width="324.0"/>
  <outline>
    <contour>
      <point x="46.0" y="-280.0" type="line"/>
      <point x="46.0" y="1500.0" type="line"/>
      <point x="380.0" y="1500.0" type="line"/>
      <point x="380.0" y="-280.0" type="line"/>
    </contour>
    <contour>
      <point x="476.0" y="-280.0" type="line"/>
      <point x="239.0" y="-280.0" type="line"/>
      <point x="239.0" y="-40.0" type="line"/>
      <point x="476.0" y="-40.0" type="line"/>
    </contour>
    <contour>
      <point x="476.0" y="1260.0" type="line"/>
      <point x="234.0" y="1260.0" type="line"/>
      <point x="234.0" y="1500.0" type="line"/>
      <point x="476.0" y="1500.0" type="line"/>
    </contour>
  </outline>
</glyph>
<glyph name="bracketright" format="2">
  <advance width="324.0"/>
  <outline>
    <contour>
      <point x="278.0" y="-280.0" type="line"/>
      <point x="-56.0" y="-280.0" type="line"/>
      <point x="-56.0" y="1500.0" type="line"/>
      <point x="278.0" y="1500.0" type="line"/>
    </contour>
    <contour>
      <point x="-152.0" y="-280.0" type="line"/>
      <point x="-152.0" y="-40.0" type="line"/>
      <point x="85.0" y="-40.0" type="line"/>
      <point x="85.0" y="-280.0" type="line"/>
    </contour>
    <contour>
      <point x="-152.0" y="1260.0" type="line"/>
      <point x="-152.0" y="1500.0" type="line"/>
      <point x="90.0" y="1500.0" type="line"/>
      <point x="90.0" y="1260.0" type="line"/>
    </contour>
  </outline>
</glyph>
<glyph name="c" format="2">
  <advance width="557.0"/>
  <outline>
    <contour>
      <point x="565.0" y="391.0" type="line"/>
      <point x="564.0" y="289.0" type="line" smooth="yes"/>
      <point x="573.0" y="140.0"/>
      <point x="432.0" y="-15.0"/>
      <point x="300.0" y="-15.0" type="qcurve" smooth="yes"/>
      <point x="291.0" y="-15.0" type="line" smooth="yes"/>
      <point x="171.0" y="-15.0"/>
      <point x="8.0" y="131.0"/>
      <point x="8.0" y="339.0" type="qcurve" smooth="yes"/>
      <point x="8.0" y="688.0" type="line" smooth="yes"/>
      <point x="8.0" y="823.0"/>
      <point x="166.0" y="991.0"/>
      <point x="282.0" y="991.0" type="qcurve" smooth="yes"/>
      <point x="301.0" y="991.0" type="line" smooth="yes"/>
      <point x="417.0" y="991.0"/>
      <point x="558.0" y="845.0"/>
      <point x="559.0" y="707.0" type="qcurve" smooth="yes"/>
      <point x="561.0" y="552.0" type="line"/>
      <point x="269.0" y="553.0" type="line"/>
      <point x="268.0" y="700.0" type="line" smooth="yes"/>
      <point x="271.0" y="747.0"/>
      <point x="292.0" y="780.0"/>
      <point x="316.0" y="780.0" type="qcurve" smooth="yes"/>
      <point x="317.0" y="780.0" type="line" smooth="yes"/>
      <point x="337.0" y="780.0"/>
      <point x="364.0" y="779.0"/>
      <point x="364.0" y="761.0" type="qcurve" smooth="yes"/>
      <point x="364.0" y="232.0" type="line" smooth="yes"/>
      <point x="364.0" y="211.0"/>
      <point x="334.0" y="188.0"/>
      <point x="319.0" y="188.0" type="qcurve" smooth="yes"/>
      <point x="316.0" y="188.0" type="line" smooth="yes"/>
      <point x="289.0" y="188.0"/>
      <point x="280.0" y="219.0"/>
      <point x="268.0" y="272.0" type="qcurve" smooth="yes"/>
      <point x="267.0" y="393.0" type="line"/>
    </contour>
  </outline>
</glyph>
<glyph name="d" format="2">
  <advance width="690.0"/>
  <outline>
    <contour>
      <point x="662.0" y="0.0" type="line"/>
      <point x="321.0" y="0.0" type="line"/>
      <point x="321.0" y="1500.0" type="line"/>
      <point x="662.0" y="1500.0" type="line"/>
    </contour>
    <contour>
      <point x="254.0" y="916.0" type="qcurve" smooth="yes"/>
      <point x="254.0" y="-12.0" type="line" smooth="yes"/>
      <point x="254.0" y="-55.0"/>
      <point x="178.0" y="-17.0"/>
      <point x="135.0" y="-17.0" type="qcurve" smooth="yes"/>
      <point x="131.0" y="-17.0" type="line" smooth="yes"/>
      <point x="65.0" y="-17.0"/>
      <point x="8.0" y="179.0"/>
      <point x="8.0" y="354.0" type="qcurve" smooth="yes"/>
      <point x="8.0" y="687.0" type="line" smooth="yes"/>
      <point x="8.0" y="822.0"/>
      <point x="64.0" y="992.0"/>
      <point x="124.0" y="992.0" type="qcurve" smooth="yes"/>
      <point x="128.0" y="992.0" type="line" smooth="yes"/>
      <point x="175.0" y="992.0"/>
      <point x="254.0" y="1017.0"/>
    </contour>
    <contour>
      <point x="280.0" y="728.0" type="line" smooth="yes"/>
      <point x="280.0" y="732.0"/>
      <point x="299.0" y="787.0"/>
      <point x="328.0" y="787.0" type="qcurve" smooth="yes"/>
      <point x="327.0" y="787.0" type="line" smooth="yes"/>
      <point x="354.0" y="787.0"/>
      <point x="337.0" y="784.0"/>
      <point x="337.0" y="755.0" type="qcurve" smooth="yes"/>
      <point x="337.0" y="227.0" type="line" smooth="yes"/>
      <point x="337.0" y="192.0"/>
      <point x="340.0" y="178.0"/>
      <point x="317.0" y="178.0" type="qcurve" smooth="yes"/>
      <point x="318.0" y="178.0" type="line" smooth="yes"/>
      <point x="276.0" y="178.0"/>
      <point x="280.0" y="181.0"/>
      <point x="280.0" y="236.0" type="qcurve" smooth="yes"/>
    </contour>
  </outline>
</glyph>
<glyph name="e" format="2">
  <advance width="573.0"/>
  <outline>
    <contour>
      <point x="541.0" y="318.0" type="line"/>
      <point x="541.0" y="286.0" type="line" smooth="yes"/>
      <point x="545.0" y="138.0"/>
      <point x="427.0" y="-17.0"/>
      <point x="294.0" y="-17.0" type="qcurve" smooth="yes"/>
      <point x="275.0" y="-17.0" type="line" smooth="yes"/>
      <point x="181.0" y="-17.0"/>
      <point x="9.0" y="149.0"/>
      <point x="9.0" y="327.0" type="qcurve" smooth="yes"/>
      <point x="9.0" y="687.0" type="line" smooth="yes"/>
      <point x="9.0" y="830.0"/>
      <point x="183.0" y="990.0"/>
      <point x="268.0" y="990.0" type="qcurve" smooth="yes"/>
      <point x="296.0" y="990.0" type="line" smooth="yes"/>
      <point x="424.0" y="990.0"/>
      <point x="542.0" y="738.0"/>
      <point x="559.0" y="521.0" type="qcurve" smooth="yes"/>
      <point x="562.0" y="420.0" type="line"/>
      <point x="45.0" y="420.0" type="line"/>
      <point x="45.0" y="567.0" type="line"/>
      <point x="276.0" y="567.0" type="line"/>
      <point x="275.0" y="658.0" type="line" smooth="yes"/>
      <point x="261.0" y="743.0"/>
      <point x="280.0" y="794.0"/>
      <point x="300.0" y="794.0" type="qcurve" smooth="yes"/>
      <point x="302.0" y="794.0" type="line" smooth="yes"/>
      <point x="346.0" y="794.0"/>
      <point x="353.0" y="778.0"/>
      <point x="353.0" y="738.0" type="qcurve" smooth="yes"/>
      <point x="353.0" y="230.0" type="line" smooth="yes"/>
      <point x="353.0" y="203.0"/>
      <point x="351.0" y="179.0"/>
      <point x="317.0" y="179.0" type="qcurve" smooth="yes"/>
      <point x="317.0" y="179.0" type="line" smooth="yes"/>
      <point x="291.0" y="179.0"/>
      <point x="272.0" y="216.0"/>
      <point x="276.0" y="283.0" type="qcurve" smooth="yes"/>
      <point x="276.0" y="328.0" type="line"/>
    </contour>
  </outline>
</glyph>
<glyph name="eight" format="2">
  <advance width="730.0"/>
  <outline>
    <contour>
      <point x="363.0" y="-18.0" type="line" smooth="yes"/>
      <point x="201.0" y="-18.0"/>
      <point x="-6.0" y="194.0"/>
      <point x="-6.0" y="402.0" type="qcurve" smooth="yes"/>
      <point x="-6.0" y="467.0" type="line" smooth="yes"/>
      <point x="-6.0" y="651.0"/>
      <point x="216.0" y="870.0"/>
      <point x="357.0" y="870.0" type="qcurve" smooth="yes"/>
      <point x="362.0" y="870.0" type="line" smooth="yes"/>
      <point x="508.0" y="870.0"/>
      <point x="736.0" y="651.0"/>
      <point x="736.0" y="467.0" type="qcurve" smooth="yes"/>
      <point x="736.0" y="404.0" type="line" smooth="yes"/>
      <point x="736.0" y="194.0"/>
      <point x="533.0" y="-18.0"/>
      <point x="368.0" y="-18.0" type="qcurve" smooth="yes"/>
    </contour>
    <contour>
      <point x="363.0" y="218.0" type="line" smooth="yes"/>
      <point x="387.0" y="218.0"/>
      <point x="411.0" y="307.0"/>
      <point x="411.0" y="416.0" type="qcurve" smooth="yes"/>
      <point x="411.0" y="502.0" type="line" smooth="yes"/>
      <point x="411.0" y="610.0"/>
      <point x="380.0" y="706.0"/>
      <point x="355.0" y="706.0" type="qcurve" smooth="yes"/>
      <point x="363.0" y="706.0" type="line" smooth="yes"/>
      <point x="331.0" y="706.0"/>
      <point x="304.0" y="610.0"/>
      <point x="304.0" y="502.0" type="qcurve" smooth="yes"/>
      <point x="304.0" y="416.0" type="line" smooth="yes"/>
      <point x="304.0" y="307.0"/>
      <point x="339.0" y="218.0"/>
      <point x="363.0" y="218.0" type="qcurve" smooth="yes"/>
    </contour>
    <contour>
      <point x="363.0" y="751.0" type="line" smooth="yes"/>
      <point x="249.0" y="751.0"/>
      <point x="81.0" y="916.0"/>
      <point x="81.0" y="1061.0" type="qcurve" smooth="yes"/>
      <point x="81.0" y="1180.0" type="line" smooth="yes"/>
      <point x="81.0" y="1351.0"/>
      <point x="246.0" y="1502.0"/>
      <point x="359.0" y="1502.0" type="qcurve" smooth="yes"/>
      <point x="364.0" y="1502.0" type="line" smooth="yes"/>
      <point x="482.0" y="1502.0"/>
      <point x="654.0" y="1351.0"/>
      <point x="654.0" y="1177.0" type="qcurve" smooth="yes"/>
      <point x="654.0" y="1056.0" type="line" smooth="yes"/>
      <point x="654.0" y="915.0"/>
      <point x="485.0" y="751.0"/>
      <point x="365.0" y="751.0" type="qcurve" smooth="yes"/>
    </contour>
    <contour>
      <point x="367.0" y="895.0" type="line" smooth="yes"/>
      <point x="378.0" y="895.0"/>
      <point x="370.0" y="961.0"/>
      <point x="370.0" y="1015.0" type="qcurve" smooth="yes"/>
      <point x="370.0" y="1133.0" type="line" smooth="yes"/>
      <point x="370.0" y="1200.0"/>
      <point x="368.0" y="1262.0"/>
      <point x="367.0" y="1262.0" type="qcurve" smooth="yes"/>
      <point x="366.0" y="1262.0" type="line" smooth="yes"/>
      <point x="363.0" y="1262.0"/>
      <point x="364.0" y="1200.0"/>
      <point x="364.0" y="1133.0" type="qcurve" smooth="yes"/>
      <point x="364.0" y="1015.0" type="line" smooth="yes"/>
      <point x="364.0" y="961.0"/>
      <point x="354.0" y="895.0"/>
      <point x="366.0" y="895.0" type="qcurve" smooth="yes"/>
    </contour>
  </outline>
</glyph>
<glyph name="exclam" format="2">
  <advance width="312.0"/>
  <outline>
    <contour>
      <point x="-29.0" y="292.0" type="line"/>
      <point x="-29.0" y="1500.0" type="line"/>
      <point x="341.0" y="1500.0" type="line"/>
      <point x="341.0" y="292.0" type="line"/>
    </contour>
    <contour>
      <point x="155.0" y="-39.0" type="line" smooth="yes"/>
      <point x="262.0" y="-39.0"/>
      <point x="373.0" y="64.0"/>
      <point x="373.0" y="147.0" type="qcurve" smooth="yes"/>
      <point x="373.0" y="159.0" type="line" smooth="yes"/>
      <point x="373.0" y="243.0"/>
      <point x="264.0" y="348.0"/>
      <point x="155.0" y="348.0" type="qcurve" smooth="yes"/>
      <point x="152.0" y="348.0" type="line" smooth="yes"/>
      <point x="49.0" y="348.0"/>
      <point x="-57.0" y="243.0"/>
      <point x="-57.0" y="159.0" type="qcurve" smooth="yes"/>
      <point x="-57.0" y="147.0" type="line" smooth="yes"/>
      <point x="-57.0" y="62.0"/>
      <point x="48.0" y="-39.0"/>
      <point x="152.0" y="-39.0" type="qcurve" smooth="yes"/>
    </contour>
  </outline>
</glyph>
<glyph name="f" format="2">
  <advance width="245.0"/>
  <outline>
    <contour>
      <point x="254.0" y="738.0" type="line"/>
      <point x="9.0" y="738.0" type="line"/>
      <point x="9.0" y="980.0" type="line"/>
      <point x="254.0" y="980.0" type="line"/>
    </contour>
    <contour>
      <point x="258.0" y="1335.0" type="qcurve" smooth="yes"/>
      <point x="258.0" y="0.0" type="line"/>
      <point x="-90.0" y="0.0" type="line"/>
      <point x="-90.0" y="1305.0" type="line" smooth="yes"/>
      <point x="-90.0" y="1413.0"/>
      <point x="26.0" y="1553.0"/>
      <point x="138.0" y="1553.0" type="qcurve" smooth="yes"/>
      <point x="203.0" y="1553.0"/>
      <point x="264.0" y="1534.0"/>
      <point x="294.0" y="1515.0" type="qcurve"/>
      <point x="257.0" y="1349.0" type="line"/>
      <point x="247.0" y="1348.0"/>
      <point x="260.0" y="1342.0"/>
      <point x="248.0" y="1342.0" type="qcurve" smooth="yes"/>
      <point x="237.0" y="1342.0"/>
      <point x="258.0" y="1350.0"/>
    </contour>
  </outline>
</glyph>
<glyph name="five" format="2">
  <advance width="744.0"/>
  <outline>
    <contour>
      <point x="482.0" y="1019.0" type="line" smooth="yes"/>
      <point x="646.0" y="1019.0"/>
      <point x="702.0" y="828.0"/>
      <point x="702.0" y="660.0" type="qcurve" smooth="yes"/>
      <point x="702.0" y="379.0" type="line" smooth="yes"/>
      <point x="702.0" y="185.0"/>
      <point x="539.0" y="-16.0"/>
      <point x="406.0" y="-16.0" type="qcurve" smooth="yes"/>
      <point x="390.0" y="-16.0" type="line" smooth="yes"/>
      <point x="238.0" y="-16.0"/>
      <point x="89.0" y="178.0"/>
      <point x="89.0" y="317.0" type="qcurve" smooth="yes"/>
      <point x="89.0" y="474.0" type="line"/>
      <point x="428.0" y="474.0" type="line"/>
      <point x="426.0" y="303.0" type="line" smooth="yes"/>
      <point x="418.0" y="228.0"/>
      <point x="409.0" y="208.0"/>
      <point x="392.0" y="208.0" type="qcurve" smooth="yes"/>
      <point x="391.0" y="208.0" type="line" smooth="yes"/>
      <point x="342.0" y="208.0"/>
      <point x="373.0" y="228.0"/>
      <point x="373.0" y="267.0" type="qcurve" smooth="yes"/>
      <point x="373.0" y="764.0" type="line" smooth="yes"/>
      <point x="373.0" y="809.0"/>
      <point x="376.0" y="794.0"/>
      <point x="412.0" y="794.0" type="qcurve" smooth="yes"/>
      <point x="415.0" y="794.0" type="line" smooth="yes"/>
      <point x="417.0" y="794.0"/>
      <point x="355.0" y="693.0"/>
      <point x="371.0" y="640.0" type="qcurve"/>
      <point x="62.0" y="642.0" type="line"/>
      <point x="90.0" y="1500.0" type="line"/>
      <point x="622.0" y="1500.0" type="line"/>
      <point x="622.0" y="1238.0" type="line"/>
      <point x="313.0" y="1238.0" type="line"/>
      <point x="264.0" y="885.0" type="line"/>
      <point x="286.0" y="936.0"/>
      <point x="404.0" y="1019.0"/>
      <point x="466.0" y="1019.0" type="qcurve" smooth="yes"/>
    </contour>
  </outline>
</glyph>
<glyph name="i" format="2">
  <advance width="194.0"/>
  <outline>
    <contour>
      <point x="-155.0" y="0.0" type="line"/>
      <point x="-155.0" y="980.0" type="line"/>
      <point x="182.0" y="980.0" type="line"/>
      <point x="182.0" y="0.0" type="line"/>
    </contour>
    <contour>
      <point x="15.0" y="1031.0" type="line" smooth="yes"/>
      <point x="103.0" y="1031.0"/>
      <point x="199.0" y="1129.0"/>
      <point x="199.0" y="1210.0" type="qcurve" smooth="yes"/>
      <point x="199.0" y="1220.0" type="line" smooth="yes"/>
      <point x="199.0" y="1300.0"/>
      <point x="104.0" y="1401.0"/>
      <point x="15.0" y="1401.0" type="qcurve" smooth="yes"/>
      <point x="11.0" y="1401.0" type="line" smooth="yes"/>
      <point x="-72.0" y="1401.0"/>
      <point x="-170.0" y="1300.0"/>
      <point x="-170.0" y="1220.0" type="qcurve" smooth="yes"/>
      <point x="-170.0" y="1210.0" type="line" smooth="yes"/>
      <point x="-170.0" y="1128.0"/>
      <point x="-74.0" y="1031.0"/>
      <point x="11.0" y="1031.0" type="qcurve" smooth="yes"/>
    </contour>
    <contour>
      <point x="178.0" y="685.0" type="line"/>
      <point x="348.0" y="665.0" type="line"/>
      <point x="348.0" y="960.0" type="line"/>
      <point x="178.0" y="980.0" type="line"/>
    </contour>
  </outline>
</glyph>
<glyph name="k" format="2">
  <advance width="848.0"/>
  <outline>
    <contour>
      <point x="28.0" y="0.0" type="line"/>
      <point x="28.0" y="1500.0" type="line"/>
      <point x="366.0" y="1500.0" type="line"/>
      <point x="366.0" y="0.0" type="line"/>
    </contour>
    <contour>
      <point x="588.0" y="541.0" type="line"/>
      <point x="366.0" y="288.0" type="line"/>
      <point x="366.0" y="609.0" type="line"/>
      <point x="406.0" y="744.0" type="line"/>
      <point x="490.0" y="980.0" type="line"/>
      <point x="826.0" y="980.0" type="line"/>
      <point x="636.0" y="563.0" type="line"/>
    </contour>
    <contour>
      <point x="580.0" y="729.0" type="line"/>
      <point x="847.0" y="0.0" type="line"/>
      <point x="496.0" y="0.0" type="line"/>
      <point x="327.0" y="556.0" type="line"/>
    </contour>
  </outline>
</glyph>
<glyph name="l" format="2">
  <advance width="165.0"/>
  <outline>
    <contour>
      <point x="28.0" y="32.0" type="qcurve" smooth="yes"/>
      <point x="28.0" y="1500.0" type="line"/>
      <point x="369.0" y="1500.0" type="line"/>
      <point x="369.0" y="0.0" type="line"/>
      <point x="126.0" y="0.0"/>
      <point x="28.0" y="-64.0"/>
    </contour>
    <contour>
      <point x="-209.0" y="39.0" type="line"/>
      <point x="70.0" y="29.0" type="line"/>
      <point x="40.0" y="254.0" type="line"/>
      <point x="-209.0" y="264.0" type="line"/>
    </contour>
  </outline>
</glyph>
<glyph name="less" format="2">
  <advance width="250.0"/>
  <outline>
    <contour>
      <point x="-242.0" y="574.0" type="line"/>
      <point x="-242.0" y="885.0" type="line"/>
      <point x="498.0" y="1266.0" type="line"/>
      <point x="498.0" y="944.0" type="line"/>
      <point x="150.0" y="751.0" type="line"/>
      <point x="498.0" y="501.0" type="line"/>
      <point x="498.0" y="170.0" type="line"/>
    </contour>
  </outline>
</glyph>
<glyph name="m" format="2">
  <advance width="967.0"/>
  <outline>
    <contour>
      <point x="28.0" y="0.0" type="line"/>
      <point x="28.0" y="980.0" type="line"/>
      <point x="368.0" y="980.0" type="line"/>
      <point x="368.0" y="0.0" type="line"/>
    </contour>
    <contour>
      <point x="299.0" y="589.0" type="line"/>
      <point x="227.0" y="693.0"/>
      <point x="325.0" y="992.0"/>
      <point x="508.0" y="992.0" type="qcurve" smooth="yes"/>
      <point x="612.0" y="992.0"/>
      <point x="666.0" y="838.0"/>
      <point x="666.0" y="721.0" type="qcurve" smooth="yes"/>
      <point x="666.0" y="0.0" type="line"/>
      <point x="327.0" y="0.0" type="line"/>
      <point x="327.0" y="711.0" type="line" smooth="yes"/>
      <point x="327.0" y="732.0"/>
      <point x="315.0" y="740.0"/>
      <point x="343.0" y="740.0" type="qcurve" smooth="yes"/>
      <point x="322.0" y="740.0"/>
      <point x="306.0" y="689.0"/>
      <point x="303.0" y="600.0" type="qcurve"/>
    </contour>
    <contour>
      <point x="572.0" y="673.0" type="line"/>
      <point x="500.0" y="750.0"/>
      <point x="632.0" y="992.0"/>
      <point x="788.0" y="992.0" type="qcurve" smooth="yes"/>
      <point x="896.0" y="992.0"/>
      <point x="951.0" y="838.0"/>
      <point x="951.0" y="721.0" type="qcurve" smooth="yes"/>
      <point x="951.0" y="0.0" type="line"/>
      <point x="611.0" y="0.0" type="line"/>
      <point x="611.0" y="711.0" type="line" smooth="yes"/>
      <point x="611.0" y="732.0"/>
      <point x="599.0" y="740.0"/>
      <point x="627.0" y="740.0" type="qcurve" smooth="yes"/>
      <point x="606.0" y="740.0"/>
      <point x="590.0" y="689.0"/>
      <point x="587.0" y="600.0" type="qcurve"/>
    </contour>
  </outline>
</glyph>
<glyph name="nine" format="2">
  <advance width="673.0"/>
  <outline>
    <contour>
      <point x="273.0" y="977.0" type="qcurve"/>
      <point x="272.0" y="1158.0" type="line" smooth="yes"/>
      <point x="260.0" y="1177.0"/>
      <point x="303.0" y="1273.0"/>
      <point x="312.0" y="1273.0" type="qcurve" smooth="yes"/>
      <point x="305.0" y="1273.0" type="line" smooth="yes"/>
      <point x="340.0" y="1273.0"/>
      <point x="397.0" y="1172.0"/>
      <point x="397.0" y="1124.0" type="qcurve" smooth="yes"/>
      <point x="397.0" y="873.0" type="line" smooth="yes"/>
      <point x="397.0" y="814.0"/>
      <point x="361.0" y="753.0"/>
      <point x="325.0" y="753.0" type="qcurve" smooth="yes"/>
      <point x="331.0" y="753.0" type="line" smooth="yes"/>
      <point x="306.0" y="753.0"/>
      <point x="310.0" y="848.0"/>
      <point x="285.0" y="897.0" type="qcurve" smooth="yes"/>
      <point x="286.0" y="998.0" type="line"/>
      <point x="427.0" y="982.0" type="line"/>
      <point x="426.0" y="970.0" type="line" smooth="yes"/>
      <point x="410.0" y="773.0"/>
      <point x="262.0" y="554.0"/>
      <point x="202.0" y="554.0" type="qcurve" smooth="yes"/>
      <point x="197.0" y="554.0" type="line" smooth="yes"/>
      <point x="116.0" y="554.0"/>
      <point x="22.0" y="744.0"/>
      <point x="22.0" y="923.0" type="qcurve" smooth="yes"/>
      <point x="22.0" y="1126.0" type="line" smooth="yes"/>
      <point x="22.0" y="1290.0"/>
      <point x="168.0" y="1502.0"/>
      <point x="298.0" y="1502.0" type="qcurve" smooth="yes"/>
      <point x="308.0" y="1502.0" type="line" smooth="yes"/>
      <point x="470.0" y="1502.0"/>
      <point x="625.0" y="1268.0"/>
      <point x="629.0" y="1080.0" type="qcurve" smooth="yes"/>
      <point x="630.0" y="735.0" type="line" smooth="yes"/>
      <point x="636.0" y="369.0"/>
      <point x="318.0" y="-4.0"/>
      <point x="140.0" y="-13.0" type="qcurve" smooth="yes"/>
      <point x="117.0" y="-13.0" type="line"/>
      <point x="117.0" y="264.0" type="line"/>
      <point x="129.0" y="265.0" type="line" smooth="yes"/>
      <point x="313.0" y="274.0"/>
      <point x="263.0" y="663.0"/>
    </contour>
  </outline>
</glyph>
<glyph name="numbersign" format="2">
  <advance width="642.0"/>
  <outline>
    <contour>
      <point x="-50.0" y="0.0" type="line"/>
      <point x="120.0" y="1500.0" type="line"/>
      <point x="394.0" y="1500.0" type="line"/>
      <point x="224.0" y="0.0" type="line"/>
    </contour>
    <contour>
      <point x="606.0" y="340.0" type="line"/>
      <point x="-34.0" y="340.0" type="line"/>
      <point x="-34.0" y="680.0" type="line"/>
      <point x="606.0" y="680.0" type="line"/>
    </contour>
    <contour>
      <point x="676.0" y="845.0" type="line"/>
      <point x="16.0" y="845.0" type="line"/>
      <point x="16.0" y="1185.0" type="line"/>
      <point x="676.0" y="1185.0" type="line"/>
    </contour>
    <contour>
      <point x="270.0" y="0.0" type="line"/>
      <point x="440.0" y="1500.0" type="line"/>
      <point x="714.0" y="1500.0" type="line"/>
      <point x="544.0" y="0.0" type="line"/>
    </contour>
  </outline>
</glyph>
<glyph name="o" format="2">
  <advance width="612.0"/>
  <outline>
    <contour>
      <point x="302.0" y="-16.0" type="line" smooth="yes"/>
      <point x="165.0" y="-16.0"/>
      <point x="8.0" y="147.0"/>
      <point x="8.0" y="328.0" type="qcurve" smooth="yes"/>
      <point x="8.0" y="678.0" type="line" smooth="yes"/>
      <point x="8.0" y="825.0"/>
      <point x="177.0" y="992.0"/>
      <point x="300.0" y="992.0" type="qcurve" smooth="yes"/>
      <point x="303.0" y="992.0" type="line" smooth="yes"/>
      <point x="429.0" y="992.0"/>
      <point x="605.0" y="824.0"/>
      <point x="605.0" y="683.0" type="qcurve" smooth="yes"/>
      <point x="605.0" y="332.0" type="line" smooth="yes"/>
      <point x="605.0" y="148.0"/>
      <point x="441.0" y="-16.0"/>
      <point x="305.0" y="-16.0" type="qcurve" smooth="yes"/>
    </contour>
    <contour>
      <point x="310.0" y="187.0" type="line" smooth="yes"/>
      <point x="292.0" y="187.0"/>
      <point x="266.0" y="194.0"/>
      <point x="266.0" y="228.0" type="qcurve" smooth="yes"/>
      <point x="266.0" y="753.0" type="line" smooth="yes"/>
      <point x="266.0" y="780.0"/>
      <point x="291.0" y="790.0"/>
      <point x="310.0" y="790.0" type="qcurve" smooth="yes"/>
      <point x="312.0" y="790.0" type="line" smooth="yes"/>
      <point x="328.0" y="790.0"/>
      <point x="354.0" y="780.0"/>
      <point x="354.0" y="753.0" type="qcurve" smooth="yes"/>
      <point x="354.0" y="228.0" type="line" smooth="yes"/>
      <point x="354.0" y="195.0"/>
      <point x="339.0" y="187.0"/>
      <point x="312.0" y="187.0" type="qcurve" smooth="yes"/>
    </contour>
  </outline>
</glyph>
<glyph name="period" format="2">
  <advance width="430.0"/>
  <outline>
    <contour>
      <point x="212.0" y="-27.0" type="line" smooth="yes"/>
      <point x="303.0" y="-27.0"/>
      <point x="409.0" y="69.0"/>
      <point x="409.0" y="149.0" type="qcurve" smooth="yes"/>
      <point x="409.0" y="160.0" type="line" smooth="yes"/>
      <point x="409.0" y="237.0"/>
      <point x="306.0" y="335.0"/>
      <point x="212.0" y="335.0" type="qcurve" smooth="yes"/>
      <point x="209.0" y="335.0" type="line" smooth="yes"/>
      <point x="122.0" y="335.0"/>
      <point x="22.0" y="237.0"/>
      <point x="22.0" y="160.0" type="qcurve" smooth="yes"/>
      <point x="22.0" y="149.0" type="line" smooth="yes"/>
      <point x="22.0" y="69.0"/>
      <point x="122.0" y="-27.0"/>
      <point x="209.0" y="-27.0" type="qcurve" smooth="yes"/>
    </contour>
  </outline>
</glyph>
<glyph name="quotedbl" format="2">
  <advance width="454.0"/>
  <outline>
    <contour>
      <point x="-66.0" y="852.0" type="line"/>
      <point x="-66.0" y="1500.0" type="line"/>
      <point x="267.0" y="1500.0" type="line"/>
      <point x="267.0" y="852.0" type="line"/>
    </contour>
    <contour>
      <point x="187.0" y="852.0" type="line"/>
      <point x="187.0" y="1500.0" type="line"/>
      <point x="520.0" y="1500.0" type="line"/>
      <point x="520.0" y="852.0" type="line"/>
    </contour>
  </outline>
</glyph>
<glyph name="s" format="2">
  <advance width="500.0"/>
  <outline>
    <contour>
      <point x="234.0" y="268.0" type="line" smooth="yes"/>
      <point x="234.0" y="284.0"/>
      <point x="195.0" y="353.0"/>
      <point x="155.0" y="398.0" type="qcurve" smooth="yes"/>
      <point x="46.0" y="466.0"/>
      <point x="-47.0" y="623.0"/>
      <point x="-47.0" y="712.0" type="qcurve" smooth="yes"/>
      <point x="-47.0" y="724.0" type="line" smooth="yes"/>
      <point x="-47.0" y="850.0"/>
      <point x="115.0" y="992.0"/>
      <point x="242.0" y="992.0" type="qcurve" smooth="yes"/>
      <point x="282.0" y="992.0" type="line" smooth="yes"/>
      <point x="376.0" y="992.0"/>
      <point x="539.0" y="868.0"/>
      <point x="540.0" y="760.0" type="qcurve" smooth="yes"/>
      <point x="539.0" y="741.0" type="line"/>
      <point x="239.0" y="741.0" type="line"/>
      <point x="238.0" y="729.0" type="line" smooth="yes"/>
      <point x="233.0" y="765.0"/>
      <point x="259.0" y="805.0"/>
      <point x="288.0" y="805.0" type="qcurve" smooth="yes"/>
      <point x="251.0" y="805.0" type="line" smooth="yes"/>
      <point x="272.0" y="805.0"/>
      <point x="254.0" y="764.0"/>
      <point x="254.0" y="717.0" type="qcurve" smooth="yes"/>
      <point x="254.0" y="718.0" type="line" smooth="yes"/>
      <point x="254.0" y="685.0"/>
      <point x="305.0" y="634.0"/>
      <point x="318.0" y="606.0" type="qcurve" smooth="yes"/>
      <point x="418.0" y="558.0"/>
      <point x="531.0" y="376.0"/>
      <point x="531.0" y="272.0" type="qcurve" smooth="yes"/>
      <point x="531.0" y="277.0" type="line" smooth="yes"/>
      <point x="531.0" y="159.0"/>
      <point x="386.0" y="-14.0"/>
      <point x="242.0" y="-14.0" type="qcurve" smooth="yes"/>
      <point x="233.0" y="-14.0" type="line" smooth="yes"/>
      <point x="106.0" y="-14.0"/>
      <point x="-46.0" y="137.0"/>
      <point x="-44.0" y="247.0" type="qcurve" smooth="yes"/>
      <point x="-44.0" y="264.0" type="line"/>
      <point x="294.0" y="266.0" type="line"/>
      <point x="294.0" y="290.0" type="line" smooth="yes"/>
      <point x="294.0" y="209.0"/>
      <point x="268.0" y="172.0"/>
      <point x="252.0" y="172.0" type="qcurve" smooth="yes"/>
      <point x="259.0" y="172.0" type="line" smooth="yes"/>
      <point x="297.0" y="172.0"/>
      <point x="234.0" y="224.0"/>
      <point x="234.0" y="260.0" type="qcurve" smooth="yes"/>
    </contour>
  </outline>
</glyph>
<glyph name="six" format="2">
  <advance width="673.0"/>
  <outline>
    <contour>
      <point x="400.0" y="500.0" type="qcurve"/>
      <point x="401.0" y="357.0" type="line" smooth="yes"/>
      <point x="413.0" y="320.0"/>
      <point x="368.0" y="220.0"/>
      <point x="359.0" y="220.0" type="qcurve" smooth="yes"/>
      <point x="366.0" y="220.0" type="line" smooth="yes"/>
      <point x="331.0" y="220.0"/>
      <point x="276.0" y="301.0"/>
      <point x="276.0" y="349.0" type="qcurve" smooth="yes"/>
      <point x="276.0" y="600.0" type="line" smooth="yes"/>
      <point x="276.0" y="659.0"/>
      <point x="312.0" y="740.0"/>
      <point x="348.0" y="740.0" type="qcurve" smooth="yes"/>
      <point x="342.0" y="740.0" type="line" smooth="yes"/>
      <point x="367.0" y="740.0"/>
      <point x="363.0" y="629.0"/>
      <point x="388.0" y="580.0" type="qcurve" smooth="yes"/>
      <point x="387.0" y="493.0" type="line"/>
      <point x="246.0" y="505.0" type="line"/>
      <point x="247.0" y="517.0" type="line" smooth="yes"/>
      <point x="263.0" y="714.0"/>
      <point x="411.0" y="933.0"/>
      <point x="471.0" y="933.0" type="qcurve" smooth="yes"/>
      <point x="476.0" y="933.0" type="line" smooth="yes"/>
      <point x="557.0" y="933.0"/>
      <point x="651.0" y="743.0"/>
      <point x="651.0" y="564.0" type="qcurve" smooth="yes"/>
      <point x="651.0" y="361.0" type="line" smooth="yes"/>
      <point x="651.0" y="197.0"/>
      <point x="505.0" y="-15.0"/>
      <point x="375.0" y="-15.0" type="qcurve" smooth="yes"/>
      <point x="365.0" y="-15.0" type="line" smooth="yes"/>
      <point x="203.0" y="-15.0"/>
      <point x="48.0" y="272.0"/>
      <point x="44.0" y="516.0" type="qcurve" smooth="yes"/>
      <point x="43.0" y="752.0" type="line" smooth="yes"/>
      <point x="37.0" y="1167.0"/>
      <point x="299.0" y="1519.0"/>
      <point x="533.0" y="1519.0" type="qcurve" smooth="yes"/>
      <point x="556.0" y="1519.0" type="line"/>
      <point x="556.0" y="1266.0" type="line"/>
      <point x="544.0" y="1265.0" type="line" smooth="yes"/>
      <point x="316.0" y="1256.0"/>
      <point x="408.0" y="875.0"/>
    </contour>
  </outline>
</glyph>
<glyph name="t" format="2">
  <advance width="303.0"/>
  <outline>
    <contour>
      <point x="323.0" y="738.0" type="line"/>
      <point x="-20.0" y="738.0" type="line"/>
      <point x="-20.0" y="980.0" type="line"/>
      <point x="323.0" y="980.0" type="line"/>
    </contour>
    <contour>
      <point x="360.0" y="216.0" type="line" smooth="yes"/>
      <point x="360.0" y="243.0"/>
      <point x="377.0" y="238.0"/>
      <point x="353.0" y="238.0" type="qcurve" smooth="yes"/>
      <point x="353.0" y="238.0"/>
      <point x="357.0" y="245.0"/>
      <point x="309.0" y="229.0" type="qcurve"/>
      <point x="383.0" y="50.0" type="line"/>
      <point x="375.0" y="39.0"/>
      <point x="309.0" y="-8.0"/>
      <point x="249.0" y="-8.0" type="qcurve"/>
      <point x="149.0" y="-8.0"/>
      <point x="18.0" y="150.0"/>
      <point x="19.0" y="247.0" type="qcurve" smooth="yes"/>
      <point x="19.0" y="1213.0" type="line"/>
      <point x="360.0" y="1213.0" type="line"/>
    </contour>
  </outline>
</glyph>
<glyph name="u" format="2">
  <advance width="622.0"/>
  <outline>
    <contour>
      <point x="594.0" y="976.0" type="line"/>
      <point x="594.0" y="-4.0" type="line"/>
      <point x="254.0" y="-4.0" type="line"/>
      <point x="254.0" y="976.0" type="line"/>
    </contour>
    <contour>
      <point x="349.0" y="277.0" type="line"/>
      <point x="410.0" y="195.0"/>
      <point x="304.0" y="-1.0"/>
      <point x="166.0" y="-1.0" type="qcurve" smooth="yes"/>
      <point x="57.0" y="-1.0"/>
      <point x="17.0" y="153.0"/>
      <point x="17.0" y="270.0" type="qcurve" smooth="yes"/>
      <point x="17.0" y="976.0" type="line"/>
      <point x="357.0" y="976.0" type="line"/>
      <point x="357.0" y="277.0" type="line" smooth="yes"/>
      <point x="357.0" y="256.0"/>
      <point x="384.0" y="238.0"/>
      <point x="365.0" y="238.0" type="qcurve" smooth="yes"/>
      <point x="347.0" y="238.0"/>
      <point x="343.0" y="196.0"/>
      <point x="345.0" y="253.0" type="qcurve"/>
    </contour>
  </outline>
</glyph>
<glyph name="w" format="2">
  <advance width="828.0"/>
  <outline>
    <contour>
      <point x="139.0" y="0.0" type="line"/>
      <point x="-40.0" y="980.0" type="line"/>
      <point x="230.0" y="980.0" type="line"/>
      <point x="280.0" y="581.0" type="line"/>
      <point x="272.0" y="980.0" type="line"/>
      <point x="548.0" y="980.0" type="line"/>
      <point x="575.0" y="579.0" type="line"/>
      <point x="599.0" y="980.0" type="line"/>
      <point x="867.0" y="980.0" type="line"/>
      <point x="701.0" y="0.0" type="line"/>
      <point x="447.0" y="0.0" type="line"/>
      <point x="426.0" y="553.0" type="line"/>
      <point x="393.0" y="0.0" type="line"/>
    </contour>
  </outline>
</glyph>
<glyph name="y" format="2">
  <advance width="546.0"/>
  <outline>
    <contour>
      <point x="158.0" y="35.0" type="qcurve"/>
      <point x="-53.0" y="980.0" type="line"/>
      <point x="267.0" y="980.0" type="line"/>
      <point x="297.0" y="509.0" type="line"/>
      <point x="308.0" y="980.0" type="line"/>
      <point x="626.0" y="980.0" type="line"/>
      <point x="449.0" y="1.0" type="line" smooth="yes"/>
      <point x="387.0" y="-274.0"/>
      <point x="172.0" y="-500.0"/>
      <point x="66.0" y="-500.0" type="qcurve" smooth="yes"/>
      <point x="-6.0" y="-500.0"/>
      <point x="-71.0" y="-491.0"/>
      <point x="-94.0" y="-484.0" type="qcurve"/>
      <point x="-82.0" y="-222.0" type="line"/>
      <point x="-61.0" y="-227.0"/>
      <point x="20.0" y="-240.0"/>
      <point x="47.0" y="-240.0" type="qcurve" smooth="yes"/>
      <point x="36.0" y="-240.0"/>
      <point x="155.0" y="-108.0"/>
    </contour>
  </outline>
</glyph>
<glyph name="zero" format="2">
  <advance width="638.0"/>
  <outline>
    <contour>
      <point x="301.0" y="-15.0" type="line" smooth="yes"/>
      <point x="160.0" y="-15.0"/>
      <point x="43.0" y="165.0"/>
      <point x="43.0" y="353.0" type="qcurve" smooth="yes"/>
      <point x="43.0" y="1137.0" type="line" smooth="yes"/>
      <point x="43.0" y="1331.0"/>
      <point x="175.0" y="1504.0"/>
      <point x="300.0" y="1504.0" type="qcurve" smooth="yes"/>
      <point x="339.0" y="1504.0" type="line" smooth="yes"/>
      <point x="463.0" y="1504.0"/>
      <point x="595.0" y="1331.0"/>
      <point x="595.0" y="1137.0" type="qcurve" smooth="yes"/>
      <point x="595.0" y="353.0" type="line" smooth="yes"/>
      <point x="595.0" y="155.0"/>
      <point x="473.0" y="-15.0"/>
      <point x="340.0" y="-15.0" type="qcurve" smooth="yes"/>
    </contour>
    <contour>
      <point x="325.0" y="209.0" type="line" smooth="yes"/>
      <point x="278.0" y="209.0"/>
      <point x="187.0" y="96.0"/>
      <point x="187.0" y="144.0" type="qcurve" smooth="yes"/>
      <point x="187.0" y="1346.0" type="line" smooth="yes"/>
      <point x="187.0" y="1391.0"/>
      <point x="276.0" y="1267.0"/>
      <point x="325.0" y="1267.0" type="qcurve" smooth="yes"/>
      <point x="311.0" y="1267.0" type="line" smooth="yes"/>
      <point x="355.0" y="1267.0"/>
      <point x="451.0" y="1391.0"/>
      <point x="451.0" y="1346.0" type="qcurve" smooth="yes"/>
      <point x="451.0" y="144.0" type="line" smooth="yes"/>
      <point x="451.0" y="96.0"/>
      <point x="356.0" y="209.0"/>
      <point x="311.0" y="209.0" type="qcurve" smooth="yes"/>
    </contour>
  </outline>
</glyph>
